%TF.GenerationSoftware,KiCad,Pcbnew,8.0.8*%
%TF.CreationDate,2025-02-07T19:33:14+02:00*%
%TF.ProjectId,RC-CarPCB,52432d43-6172-4504-9342-2e6b69636164,rev?*%
%TF.SameCoordinates,Original*%
%TF.FileFunction,Copper,L1,Top*%
%TF.FilePolarity,Positive*%
%FSLAX46Y46*%
G04 Gerber Fmt 4.6, Leading zero omitted, Abs format (unit mm)*
G04 Created by KiCad (PCBNEW 8.0.8) date 2025-02-07 19:33:14*
%MOMM*%
%LPD*%
G01*
G04 APERTURE LIST*
%TA.AperFunction,ComponentPad*%
%ADD10C,2.000000*%
%TD*%
%TA.AperFunction,ComponentPad*%
%ADD11O,2.000000X3.000000*%
%TD*%
%TA.AperFunction,ComponentPad*%
%ADD12R,2.000000X3.000000*%
%TD*%
%TA.AperFunction,ComponentPad*%
%ADD13C,1.400000*%
%TD*%
%TA.AperFunction,ComponentPad*%
%ADD14O,1.400000X1.400000*%
%TD*%
%TA.AperFunction,ComponentPad*%
%ADD15O,3.000000X2.000000*%
%TD*%
%TA.AperFunction,ComponentPad*%
%ADD16R,3.000000X2.000000*%
%TD*%
%TA.AperFunction,ComponentPad*%
%ADD17R,1.600000X1.600000*%
%TD*%
%TA.AperFunction,ComponentPad*%
%ADD18O,1.600000X1.600000*%
%TD*%
%TA.AperFunction,ComponentPad*%
%ADD19R,3.500000X3.500000*%
%TD*%
%TA.AperFunction,ComponentPad*%
%ADD20C,3.500000*%
%TD*%
%TA.AperFunction,ComponentPad*%
%ADD21R,1.700000X1.700000*%
%TD*%
%TA.AperFunction,ComponentPad*%
%ADD22C,1.700000*%
%TD*%
%TA.AperFunction,ViaPad*%
%ADD23C,0.600000*%
%TD*%
%TA.AperFunction,Conductor*%
%ADD24C,0.200000*%
%TD*%
G04 APERTURE END LIST*
D10*
%TO.P,SW2,1,A*%
%TO.N,Net-(A1-+5V)*%
X184000000Y-92000000D03*
X190500000Y-92000000D03*
%TO.P,SW2,2,B*%
%TO.N,Net-(A1-D3)*%
X184000000Y-96500000D03*
X190500000Y-96500000D03*
%TD*%
%TO.P,SW4,1,A*%
%TO.N,Net-(A1-+5V)*%
X183750000Y-56500000D03*
X190250000Y-56500000D03*
%TO.P,SW4,2,B*%
%TO.N,Net-(A1-D5)*%
X183750000Y-61000000D03*
X190250000Y-61000000D03*
%TD*%
D11*
%TO.P,RV1,1,1*%
%TO.N,Net-(A1-+5V)*%
X107000000Y-119000000D03*
D12*
%TO.P,RV1,2,2*%
%TO.N,Net-(A1-A1)*%
X107000000Y-114000000D03*
D11*
%TO.P,RV1,3,3*%
%TO.N,Net-(BT2--)*%
X115000000Y-103500000D03*
%TO.P,RV1,4*%
%TO.N,N/C*%
X107000000Y-73000000D03*
%TO.P,RV1,5*%
X107000000Y-58000000D03*
%TD*%
D13*
%TO.P,R2,1*%
%TO.N,Net-(A1-D3)*%
X191000000Y-102000000D03*
D14*
%TO.P,R2,2*%
%TO.N,Net-(BT2--)*%
X183380000Y-102000000D03*
%TD*%
D13*
%TO.P,R1,1*%
%TO.N,Net-(A1-D2)*%
X190810000Y-121000000D03*
D14*
%TO.P,R1,2*%
%TO.N,Net-(BT2--)*%
X183190000Y-121000000D03*
%TD*%
D10*
%TO.P,SW1,1,A*%
%TO.N,Net-(A1-+5V)*%
X184000000Y-110500000D03*
X190500000Y-110500000D03*
%TO.P,SW1,2,B*%
%TO.N,Net-(A1-D2)*%
X184000000Y-115000000D03*
X190500000Y-115000000D03*
%TD*%
D15*
%TO.P,RV2,1,1*%
%TO.N,Net-(A1-+5V)*%
X179500000Y-144500000D03*
D16*
%TO.P,RV2,2,2*%
%TO.N,Net-(A1-A0)*%
X174500000Y-144500000D03*
D15*
%TO.P,RV2,3,3*%
%TO.N,Net-(BT2--)*%
X164000000Y-136500000D03*
%TO.P,RV2,4*%
%TO.N,N/C*%
X133500000Y-144500000D03*
%TO.P,RV2,5*%
X118500000Y-144500000D03*
%TD*%
D13*
%TO.P,R3,1*%
%TO.N,Net-(A1-D4)*%
X191000000Y-84000000D03*
D14*
%TO.P,R3,2*%
%TO.N,Net-(BT2--)*%
X183380000Y-84000000D03*
%TD*%
D10*
%TO.P,SW3,1,A*%
%TO.N,Net-(A1-+5V)*%
X184000000Y-74500000D03*
X190500000Y-74500000D03*
%TO.P,SW3,2,B*%
%TO.N,Net-(A1-D4)*%
X184000000Y-79000000D03*
X190500000Y-79000000D03*
%TD*%
D13*
%TO.P,R4,1*%
%TO.N,Net-(A1-D5)*%
X190500000Y-67000000D03*
D14*
%TO.P,R4,2*%
%TO.N,Net-(BT2--)*%
X182880000Y-67000000D03*
%TD*%
D17*
%TO.P,A1,1,D1/TX*%
%TO.N,unconnected-(A1-D1{slash}TX-Pad1)*%
X156500000Y-112040000D03*
D18*
%TO.P,A1,2,D0/RX*%
%TO.N,unconnected-(A1-D0{slash}RX-Pad2)*%
X156500000Y-109500000D03*
%TO.P,A1,3,~{RESET}*%
%TO.N,unconnected-(A1-~{RESET}-Pad3)*%
X156500000Y-106960000D03*
%TO.P,A1,4,GND*%
%TO.N,Net-(BT2--)*%
X156500000Y-104420000D03*
%TO.P,A1,5,D2*%
%TO.N,Net-(A1-D2)*%
X156500000Y-101880000D03*
%TO.P,A1,6,D3*%
%TO.N,Net-(A1-D3)*%
X156500000Y-99340000D03*
%TO.P,A1,7,D4*%
%TO.N,Net-(A1-D4)*%
X156500000Y-96800000D03*
%TO.P,A1,8,D5*%
%TO.N,Net-(A1-D5)*%
X156500000Y-94260000D03*
%TO.P,A1,9,D6*%
%TO.N,unconnected-(A1-D6-Pad9)*%
X156500000Y-91720000D03*
%TO.P,A1,10,D7*%
%TO.N,Net-(A1-D7)*%
X156500000Y-89180000D03*
%TO.P,A1,11,D8*%
%TO.N,Net-(A1-D8)*%
X156500000Y-86640000D03*
%TO.P,A1,12,D9*%
%TO.N,unconnected-(A1-D9-Pad12)*%
X156500000Y-84100000D03*
%TO.P,A1,13,D10*%
%TO.N,unconnected-(A1-D10-Pad13)*%
X156500000Y-81560000D03*
%TO.P,A1,14,D11*%
%TO.N,Net-(A1-D11)*%
X156500000Y-79020000D03*
%TO.P,A1,15,D12*%
%TO.N,Net-(A1-D12)*%
X156500000Y-76480000D03*
%TO.P,A1,16,D13*%
%TO.N,Net-(A1-D13)*%
X141260000Y-76480000D03*
%TO.P,A1,17,3V3*%
%TO.N,Net-(A1-3V3)*%
X141260000Y-79020000D03*
%TO.P,A1,18,AREF*%
%TO.N,unconnected-(A1-AREF-Pad18)*%
X141260000Y-81560000D03*
%TO.P,A1,19,A0*%
%TO.N,Net-(A1-A0)*%
X141260000Y-84100000D03*
%TO.P,A1,20,A1*%
%TO.N,Net-(A1-A1)*%
X141260000Y-86640000D03*
%TO.P,A1,21,A2*%
%TO.N,unconnected-(A1-A2-Pad21)*%
X141260000Y-89180000D03*
%TO.P,A1,22,A3*%
%TO.N,unconnected-(A1-A3-Pad22)*%
X141260000Y-91720000D03*
%TO.P,A1,23,A4*%
%TO.N,unconnected-(A1-A4-Pad23)*%
X141260000Y-94260000D03*
%TO.P,A1,24,A5*%
%TO.N,unconnected-(A1-A5-Pad24)*%
X141260000Y-96800000D03*
%TO.P,A1,25,A6*%
%TO.N,unconnected-(A1-A6-Pad25)*%
X141260000Y-99340000D03*
%TO.P,A1,26,A7*%
%TO.N,unconnected-(A1-A7-Pad26)*%
X141260000Y-101880000D03*
%TO.P,A1,27,+5V*%
%TO.N,Net-(A1-+5V)*%
X141260000Y-104420000D03*
%TO.P,A1,28,~{RESET}*%
%TO.N,unconnected-(A1-~{RESET}-Pad28)*%
X141260000Y-106960000D03*
%TO.P,A1,29,GND*%
%TO.N,Net-(BT2--)*%
X141260000Y-109500000D03*
%TO.P,A1,30,VIN*%
%TO.N,Net-(A1-VIN)*%
X141260000Y-112040000D03*
%TD*%
D19*
%TO.P,BT2,1,+*%
%TO.N,Net-(BT1--)*%
X126500000Y-57000000D03*
D20*
%TO.P,BT2,2,-*%
%TO.N,Net-(BT2--)*%
X126500000Y-129000000D03*
%TD*%
D21*
%TO.P,U1,1,GND*%
%TO.N,Net-(BT2--)*%
X154125000Y-50289500D03*
D22*
%TO.P,U1,2,VCC*%
%TO.N,Net-(A1-3V3)*%
X154125000Y-47749500D03*
%TO.P,U1,3,CE*%
%TO.N,Net-(A1-D7)*%
X151585000Y-50289500D03*
%TO.P,U1,4,~{CSN}*%
%TO.N,Net-(A1-D8)*%
X151585000Y-47749500D03*
%TO.P,U1,5,SCK*%
%TO.N,Net-(A1-D13)*%
X149045000Y-50289500D03*
%TO.P,U1,6,MOSI*%
%TO.N,Net-(A1-D12)*%
X149045000Y-47749500D03*
%TO.P,U1,7,MISO*%
%TO.N,Net-(A1-D11)*%
X146505000Y-50289500D03*
%TO.P,U1,8,IRQ*%
%TO.N,unconnected-(U1-IRQ-Pad8)*%
X146505000Y-47749500D03*
%TD*%
D19*
%TO.P,BT1,1,+*%
%TO.N,Net-(A1-VIN)*%
X171000000Y-129000000D03*
D20*
%TO.P,BT1,2,-*%
%TO.N,Net-(BT1--)*%
X171000000Y-57000000D03*
%TD*%
D23*
%TO.N,Net-(A1-D11)*%
X146500000Y-66000000D03*
X153500000Y-66000000D03*
%TO.N,Net-(A1-A0)*%
X132500000Y-112000000D03*
X132500000Y-121000000D03*
%TO.N,Net-(A1-D8)*%
X165000000Y-45000000D03*
%TO.N,Net-(A1-D12)*%
X161500000Y-43500000D03*
%TD*%
D24*
%TO.N,Net-(A1-D2)*%
X184000000Y-115000000D02*
X169620000Y-115000000D01*
X169620000Y-115000000D02*
X156500000Y-101880000D01*
%TO.N,Net-(A1-A1)*%
X134500000Y-114000000D02*
X134500000Y-93400000D01*
X107000000Y-114000000D02*
X134500000Y-114000000D01*
X134500000Y-93400000D02*
X141260000Y-86640000D01*
%TO.N,Net-(A1-D11)*%
X146505000Y-50289500D02*
X146505000Y-65995000D01*
X146505000Y-65995000D02*
X146500000Y-66000000D01*
X156500000Y-79020000D02*
X153500000Y-76020000D01*
X153500000Y-76020000D02*
X153500000Y-66000000D01*
%TO.N,Net-(A1-A0)*%
X141260000Y-84100000D02*
X132500000Y-92860000D01*
X174500000Y-144500000D02*
X137000000Y-144500000D01*
X132500000Y-140000000D02*
X132500000Y-121000000D01*
X137000000Y-144500000D02*
X132500000Y-140000000D01*
X132500000Y-92860000D02*
X132500000Y-112000000D01*
%TO.N,Net-(A1-D7)*%
X151585000Y-84265000D02*
X156500000Y-89180000D01*
X151585000Y-50289500D02*
X151585000Y-84265000D01*
%TO.N,Net-(A1-D13)*%
X149045000Y-50289500D02*
X149045000Y-68695000D01*
X149045000Y-68695000D02*
X141260000Y-76480000D01*
%TO.N,Net-(A1-D5)*%
X176000000Y-68750000D02*
X176000000Y-78500000D01*
X176000000Y-78500000D02*
X160240000Y-94260000D01*
X160240000Y-94260000D02*
X156500000Y-94260000D01*
X183750000Y-61000000D02*
X176000000Y-68750000D01*
%TO.N,Net-(A1-+5V)*%
X187000000Y-140000000D02*
X179500000Y-140000000D01*
X179500000Y-144500000D02*
X179500000Y-140000000D01*
X187000000Y-92000000D02*
X187000000Y-74500000D01*
X107000000Y-119000000D02*
X138500000Y-119000000D01*
X139000000Y-140000000D02*
X138500000Y-139500000D01*
X179500000Y-140000000D02*
X139000000Y-140000000D01*
X138500000Y-107180000D02*
X141260000Y-104420000D01*
X187000000Y-56500000D02*
X190250000Y-56500000D01*
X138500000Y-139500000D02*
X138500000Y-119000000D01*
X187000000Y-92000000D02*
X190500000Y-92000000D01*
X187000000Y-110500000D02*
X187000000Y-140000000D01*
X190500000Y-110500000D02*
X187000000Y-110500000D01*
X187000000Y-74500000D02*
X190500000Y-74500000D01*
X187000000Y-74500000D02*
X187000000Y-56500000D01*
X187000000Y-110500000D02*
X187000000Y-92000000D01*
X138500000Y-119000000D02*
X138500000Y-107180000D01*
%TO.N,Net-(A1-D8)*%
X156500000Y-86640000D02*
X165000000Y-78140000D01*
X165000000Y-78140000D02*
X165000000Y-77500000D01*
X165000000Y-60500000D02*
X165000000Y-45000000D01*
X165000000Y-77500000D02*
X165000000Y-60500000D01*
%TO.N,Net-(A1-D4)*%
X184000000Y-79000000D02*
X166200000Y-96800000D01*
X166200000Y-96800000D02*
X156500000Y-96800000D01*
%TO.N,Net-(A1-D12)*%
X161500000Y-71480000D02*
X161500000Y-43500000D01*
X156500000Y-76480000D02*
X161500000Y-71480000D01*
%TO.N,Net-(A1-D3)*%
X182500000Y-96500000D02*
X179660000Y-99340000D01*
X184000000Y-96500000D02*
X182500000Y-96500000D01*
X179660000Y-99340000D02*
X156500000Y-99340000D01*
%TO.N,Net-(A1-3V3)*%
X154125000Y-47749500D02*
X154125000Y-44125000D01*
X135000000Y-44000000D02*
X134500000Y-44500000D01*
X134500000Y-72260000D02*
X141260000Y-79020000D01*
X154125000Y-44125000D02*
X154000000Y-44000000D01*
X134500000Y-44500000D02*
X134500000Y-72260000D01*
X154000000Y-44000000D02*
X135000000Y-44000000D01*
%TD*%
M02*
