M48
; DRILL file {KiCad 8.0.8} date 2025-02-07T19:33:17+0200
; FORMAT={-:-/ absolute / inch / decimal}
; #@! TF.CreationDate,2025-02-07T19:33:17+02:00
; #@! TF.GenerationSoftware,Kicad,Pcbnew,8.0.8
; #@! TF.FileFunction,Plated,1,2,PTH
FMAT,2
INCH
; #@! TA.AperFunction,Plated,PTH,ViaDrill
T1C0.0118
; #@! TA.AperFunction,Plated,PTH,ComponentDrill
T2C0.0276
; #@! TA.AperFunction,Plated,PTH,ComponentDrill
T3C0.0295
; #@! TA.AperFunction,Plated,PTH,ComponentDrill
T4C0.0394
; #@! TA.AperFunction,Plated,PTH,ComponentDrill
T5C0.0433
; #@! TA.AperFunction,Plated,PTH,ComponentDrill
T6C0.0787
%
G90
G05
T1
X5.2165Y-4.4094
X5.2165Y-4.7638
X5.7677Y-2.5984
X6.0433Y-2.5984
X6.3583Y-1.7126
X6.4961Y-1.7717
T2
X7.2Y-2.6378
X7.2122Y-4.7638
X7.2197Y-3.3071
X7.2197Y-4.0157
X7.5Y-2.6378
X7.5122Y-4.7638
X7.5197Y-3.3071
X7.5197Y-4.0157
T4
X5.5614Y-3.011
X5.5614Y-3.111
X5.5614Y-3.211
X5.5614Y-3.311
X5.5614Y-3.411
X5.5614Y-3.511
X5.5614Y-3.611
X5.5614Y-3.711
X5.5614Y-3.811
X5.5614Y-3.911
X5.5614Y-4.011
X5.5614Y-4.111
X5.5614Y-4.211
X5.5614Y-4.311
X5.5614Y-4.411
X5.7679Y-1.8799
X5.7679Y-1.9799
X5.8679Y-1.8799
X5.8679Y-1.9799
X5.9679Y-1.8799
X5.9679Y-1.9799
X6.0679Y-1.8799
X6.0679Y-1.9799
X6.1614Y-3.011
X6.1614Y-3.111
X6.1614Y-3.211
X6.1614Y-3.311
X6.1614Y-3.411
X6.1614Y-3.511
X6.1614Y-3.611
X6.1614Y-3.711
X6.1614Y-3.811
X6.1614Y-3.911
X6.1614Y-4.011
X6.1614Y-4.111
X6.1614Y-4.211
X6.1614Y-4.311
X6.1614Y-4.411
T5
X7.2343Y-2.2244
X7.2343Y-2.4016
X7.2441Y-2.9331
X7.2441Y-3.1102
X7.2441Y-3.622
X7.2441Y-3.7992
X7.2441Y-4.3504
X7.2441Y-4.5276
X7.4902Y-2.2244
X7.4902Y-2.4016
X7.5Y-2.9331
X7.5Y-3.1102
X7.5Y-3.622
X7.5Y-3.7992
X7.5Y-4.3504
X7.5Y-4.5276
T6
X4.9803Y-2.2441
X4.9803Y-5.0787
X6.7323Y-2.2441
X6.7323Y-5.0787
T3
G00X4.2126Y-2.2589
M15
G01X4.2126Y-2.3081
M16
G05
G00X4.2126Y-2.8494
M15
G01X4.2126Y-2.8986
M16
G05
G00X4.2126Y-4.4636
M15
G01X4.2126Y-4.5128
M16
G05
G00X4.2126Y-4.6604
M15
G01X4.2126Y-4.7096
M16
G05
G00X4.5276Y-4.0502
M15
G01X4.5276Y-4.0994
M16
G05
G00X4.6407Y-5.689
M15
G01X4.69Y-5.689
M16
G05
G00X5.2313Y-5.689
M15
G01X5.2805Y-5.689
M16
G05
G00X6.4321Y-5.374
M15
G01X6.4813Y-5.374
M16
G05
G00X6.8455Y-5.689
M15
G01X6.8947Y-5.689
M16
G05
G00X7.0423Y-5.689
M15
G01X7.0915Y-5.689
M16
G05
M30
