%TF.GenerationSoftware,KiCad,Pcbnew,8.0.7*%
%TF.CreationDate,2025-01-13T00:49:29+02:00*%
%TF.ProjectId,RC-CarPCB,52432d43-6172-4504-9342-2e6b69636164,rev?*%
%TF.SameCoordinates,Original*%
%TF.FileFunction,Copper,L2,Bot*%
%TF.FilePolarity,Positive*%
%FSLAX46Y46*%
G04 Gerber Fmt 4.6, Leading zero omitted, Abs format (unit mm)*
G04 Created by KiCad (PCBNEW 8.0.7) date 2025-01-13 00:49:29*
%MOMM*%
%LPD*%
G01*
G04 APERTURE LIST*
%TA.AperFunction,ComponentPad*%
%ADD10R,3.000000X3.000000*%
%TD*%
%TA.AperFunction,ComponentPad*%
%ADD11C,3.000000*%
%TD*%
%TA.AperFunction,ComponentPad*%
%ADD12C,1.700000*%
%TD*%
%TA.AperFunction,ComponentPad*%
%ADD13R,1.700000X1.700000*%
%TD*%
%TA.AperFunction,ComponentPad*%
%ADD14C,2.700000*%
%TD*%
%TA.AperFunction,ComponentPad*%
%ADD15C,1.750000*%
%TD*%
%TA.AperFunction,ComponentPad*%
%ADD16R,1.750000X1.750000*%
%TD*%
%TA.AperFunction,ComponentPad*%
%ADD17C,1.400000*%
%TD*%
%TA.AperFunction,ComponentPad*%
%ADD18O,1.400000X1.400000*%
%TD*%
%TA.AperFunction,ComponentPad*%
%ADD19O,1.600000X1.600000*%
%TD*%
%TA.AperFunction,ComponentPad*%
%ADD20R,1.600000X1.600000*%
%TD*%
%TA.AperFunction,ViaPad*%
%ADD21C,0.600000*%
%TD*%
%TA.AperFunction,Conductor*%
%ADD22C,0.200000*%
%TD*%
G04 APERTURE END LIST*
D10*
%TO.P,J1,1,Pin_1*%
%TO.N,Net-(J1-Pin_1)*%
X150120000Y-73500000D03*
D11*
%TO.P,J1,2,Pin_2*%
%TO.N,Net-(A1-VIN)*%
X154000000Y-73500000D03*
%TD*%
D12*
%TO.P,U1,8,IRQ*%
%TO.N,unconnected-(U1-IRQ-Pad8)*%
X148495000Y-45749500D03*
%TO.P,U1,7,MISO*%
%TO.N,Net-(A1-D11)*%
X148495000Y-48289500D03*
%TO.P,U1,6,MOSI*%
%TO.N,Net-(A1-D12)*%
X145955000Y-45749500D03*
%TO.P,U1,5,SCK*%
%TO.N,Net-(A1-D13)*%
X145955000Y-48289500D03*
%TO.P,U1,4,~{CSN}*%
%TO.N,Net-(A1-D8)*%
X143415000Y-45749500D03*
%TO.P,U1,3,CE*%
%TO.N,Net-(A1-D7)*%
X143415000Y-48289500D03*
%TO.P,U1,2,VCC*%
%TO.N,Net-(A1-3V3)*%
X140875000Y-45749500D03*
D13*
%TO.P,U1,1,GND*%
%TO.N,Net-(J1-Pin_1)*%
X140875000Y-48289500D03*
%TD*%
D14*
%TO.P,RV2,MP*%
%TO.N,N/C*%
X160970000Y-139865000D03*
X169370000Y-138665000D03*
X169370000Y-75865000D03*
X160970000Y-74665000D03*
D15*
%TO.P,RV2,3,3*%
%TO.N,Net-(J1-Pin_1)*%
X166920000Y-144015000D03*
%TO.P,RV2,2,2*%
%TO.N,Net-(A1-A0)*%
X163420000Y-70515000D03*
D16*
%TO.P,RV2,1,1*%
%TO.N,Net-(A1-+5V)*%
X166920000Y-70515000D03*
%TD*%
%TO.P,RV1,1,1*%
%TO.N,Net-(A1-+5V)*%
X110480000Y-60250000D03*
D15*
%TO.P,RV1,2,2*%
%TO.N,Net-(A1-A1)*%
X110480000Y-63750000D03*
%TO.P,RV1,3,3*%
%TO.N,Net-(J1-Pin_1)*%
X183980000Y-60250000D03*
D14*
%TO.P,RV1,MP*%
%TO.N,N/C*%
X114630000Y-66200000D03*
X115830000Y-57800000D03*
X178630000Y-57800000D03*
X179830000Y-66200000D03*
%TD*%
D17*
%TO.P,R4,1*%
%TO.N,Net-(A1-D5)*%
X121500000Y-134000000D03*
D18*
%TO.P,R4,2*%
%TO.N,Net-(J1-Pin_1)*%
X129120000Y-134000000D03*
%TD*%
%TO.P,R3,2*%
%TO.N,Net-(J1-Pin_1)*%
X129000000Y-118000000D03*
D17*
%TO.P,R3,1*%
%TO.N,Net-(A1-D4)*%
X121380000Y-118000000D03*
%TD*%
D18*
%TO.P,R2,2*%
%TO.N,Net-(J1-Pin_1)*%
X130000000Y-101500000D03*
D17*
%TO.P,R2,1*%
%TO.N,Net-(A1-D3)*%
X122380000Y-101500000D03*
%TD*%
D18*
%TO.P,R1,2*%
%TO.N,Net-(J1-Pin_1)*%
X129810000Y-85500000D03*
D17*
%TO.P,R1,1*%
%TO.N,Net-(A1-D2)*%
X122190000Y-85500000D03*
%TD*%
D19*
%TO.P,A1,30,VIN*%
%TO.N,Net-(A1-VIN)*%
X154240000Y-87800000D03*
%TO.P,A1,29,GND*%
%TO.N,Net-(J1-Pin_1)*%
X154240000Y-90340000D03*
%TO.P,A1,28,~{RESET}*%
%TO.N,unconnected-(A1-~{RESET}-Pad28)*%
X154240000Y-92880000D03*
%TO.P,A1,27,+5V*%
%TO.N,Net-(A1-+5V)*%
X154240000Y-95420000D03*
%TO.P,A1,26,A7*%
%TO.N,unconnected-(A1-A7-Pad26)*%
X154240000Y-97960000D03*
%TO.P,A1,25,A6*%
%TO.N,unconnected-(A1-A6-Pad25)*%
X154240000Y-100500000D03*
%TO.P,A1,24,A5*%
%TO.N,unconnected-(A1-A5-Pad24)*%
X154240000Y-103040000D03*
%TO.P,A1,23,A4*%
%TO.N,unconnected-(A1-A4-Pad23)*%
X154240000Y-105580000D03*
%TO.P,A1,22,A3*%
%TO.N,unconnected-(A1-A3-Pad22)*%
X154240000Y-108120000D03*
%TO.P,A1,21,A2*%
%TO.N,unconnected-(A1-A2-Pad21)*%
X154240000Y-110660000D03*
%TO.P,A1,20,A1*%
%TO.N,Net-(A1-A1)*%
X154240000Y-113200000D03*
%TO.P,A1,19,A0*%
%TO.N,Net-(A1-A0)*%
X154240000Y-115740000D03*
%TO.P,A1,18,AREF*%
%TO.N,unconnected-(A1-AREF-Pad18)*%
X154240000Y-118280000D03*
%TO.P,A1,17,3V3*%
%TO.N,Net-(A1-3V3)*%
X154240000Y-120820000D03*
%TO.P,A1,16,D13*%
%TO.N,Net-(A1-D13)*%
X154240000Y-123360000D03*
%TO.P,A1,15,D12*%
%TO.N,Net-(A1-D12)*%
X139000000Y-123360000D03*
%TO.P,A1,14,D11*%
%TO.N,Net-(A1-D11)*%
X139000000Y-120820000D03*
%TO.P,A1,13,D10*%
%TO.N,unconnected-(A1-D10-Pad13)*%
X139000000Y-118280000D03*
%TO.P,A1,12,D9*%
%TO.N,unconnected-(A1-D9-Pad12)*%
X139000000Y-115740000D03*
%TO.P,A1,11,D8*%
%TO.N,Net-(A1-D8)*%
X139000000Y-113200000D03*
%TO.P,A1,10,D7*%
%TO.N,Net-(A1-D7)*%
X139000000Y-110660000D03*
%TO.P,A1,9,D6*%
%TO.N,unconnected-(A1-D6-Pad9)*%
X139000000Y-108120000D03*
%TO.P,A1,8,D5*%
%TO.N,Net-(A1-D5)*%
X139000000Y-105580000D03*
%TO.P,A1,7,D4*%
%TO.N,Net-(A1-D4)*%
X139000000Y-103040000D03*
%TO.P,A1,6,D3*%
%TO.N,Net-(A1-D3)*%
X139000000Y-100500000D03*
%TO.P,A1,5,D2*%
%TO.N,Net-(A1-D2)*%
X139000000Y-97960000D03*
%TO.P,A1,4,GND*%
%TO.N,Net-(J1-Pin_1)*%
X139000000Y-95420000D03*
%TO.P,A1,3,~{RESET}*%
%TO.N,unconnected-(A1-~{RESET}-Pad3)*%
X139000000Y-92880000D03*
%TO.P,A1,2,D0/RX*%
%TO.N,unconnected-(A1-D0{slash}RX-Pad2)*%
X139000000Y-90340000D03*
D20*
%TO.P,A1,1,D1/TX*%
%TO.N,unconnected-(A1-D1{slash}TX-Pad1)*%
X139000000Y-87800000D03*
%TD*%
D21*
%TO.N,Net-(A1-D8)*%
X142000000Y-104500000D03*
X142000000Y-110500000D03*
%TO.N,Net-(A1-3V3)*%
X150000000Y-93000000D03*
X150000000Y-101000000D03*
%TO.N,Net-(A1-D13)*%
X145955000Y-111000000D03*
X146000000Y-119000000D03*
%TD*%
D22*
%TO.N,Net-(A1-VIN)*%
X154000000Y-73500000D02*
X154000000Y-87560000D01*
X154000000Y-87560000D02*
X154240000Y-87800000D01*
%TO.N,Net-(J1-Pin_1)*%
X150120000Y-73500000D02*
X150120000Y-61915500D01*
X150120000Y-61915500D02*
X151785500Y-60250000D01*
%TO.N,Net-(A1-D8)*%
X142000000Y-110500000D02*
X142500000Y-110000000D01*
X142500000Y-110000000D02*
X142500000Y-105000000D01*
X142500000Y-105000000D02*
X142000000Y-104500000D01*
%TO.N,Net-(A1-3V3)*%
X150000000Y-116580000D02*
X150000000Y-101000000D01*
X154240000Y-120820000D02*
X150000000Y-116580000D01*
X150000000Y-83000000D02*
X150000000Y-93000000D01*
X140875000Y-45749500D02*
X139725000Y-46899500D01*
X139725000Y-46899500D02*
X139725000Y-72725000D01*
X139725000Y-72725000D02*
X150000000Y-83000000D01*
%TO.N,Net-(A1-D13)*%
X145955000Y-111000000D02*
X145955000Y-118955000D01*
X145955000Y-118955000D02*
X146000000Y-119000000D01*
%TO.N,Net-(J1-Pin_1)*%
X166920000Y-144015000D02*
X142515000Y-144015000D01*
X142515000Y-144015000D02*
X132500000Y-134000000D01*
%TO.N,Net-(A1-A0)*%
X163420000Y-70515000D02*
X163420000Y-106560000D01*
X163420000Y-106560000D02*
X154240000Y-115740000D01*
%TO.N,Net-(A1-A1)*%
X110480000Y-63750000D02*
X117150000Y-63750000D01*
X117150000Y-63750000D02*
X152800000Y-99400000D01*
X152800000Y-99400000D02*
X152800000Y-111760000D01*
X152800000Y-111760000D02*
X154240000Y-113200000D01*
%TO.N,Net-(J1-Pin_1)*%
X156660000Y-90340000D02*
X157000000Y-90000000D01*
X154240000Y-90340000D02*
X156660000Y-90340000D01*
X151785500Y-60250000D02*
X157000000Y-60250000D01*
X157000000Y-60250000D02*
X183980000Y-60250000D01*
X157000000Y-90000000D02*
X157000000Y-60250000D01*
X140875000Y-48289500D02*
X140875000Y-49339500D01*
X140875000Y-49339500D02*
X151785500Y-60250000D01*
X132500000Y-85500000D02*
X132500000Y-95500000D01*
X132500000Y-95500000D02*
X132500000Y-101500000D01*
X139000000Y-95420000D02*
X132580000Y-95420000D01*
X132580000Y-95420000D02*
X132500000Y-95500000D01*
X132500000Y-118000000D02*
X132500000Y-134000000D01*
X132500000Y-134000000D02*
X129120000Y-134000000D01*
X132500000Y-101500000D02*
X132500000Y-118000000D01*
X132500000Y-118000000D02*
X129000000Y-118000000D01*
X132500000Y-101500000D02*
X130000000Y-101500000D01*
X129810000Y-85500000D02*
X132500000Y-85500000D01*
%TD*%
M02*
