%TF.GenerationSoftware,KiCad,Pcbnew,8.0.7*%
%TF.CreationDate,2025-01-13T00:49:29+02:00*%
%TF.ProjectId,RC-CarPCB,52432d43-6172-4504-9342-2e6b69636164,rev?*%
%TF.SameCoordinates,Original*%
%TF.FileFunction,Legend,Top*%
%TF.FilePolarity,Positive*%
%FSLAX46Y46*%
G04 Gerber Fmt 4.6, Leading zero omitted, Abs format (unit mm)*
G04 Created by KiCad (PCBNEW 8.0.7) date 2025-01-13 00:49:29*
%MOMM*%
%LPD*%
G01*
G04 APERTURE LIST*
%ADD10C,0.150000*%
%ADD11C,0.120000*%
G04 APERTURE END LIST*
D10*
X151696666Y-67874819D02*
X151696666Y-68589104D01*
X151696666Y-68589104D02*
X151649047Y-68731961D01*
X151649047Y-68731961D02*
X151553809Y-68827200D01*
X151553809Y-68827200D02*
X151410952Y-68874819D01*
X151410952Y-68874819D02*
X151315714Y-68874819D01*
X152696666Y-68874819D02*
X152125238Y-68874819D01*
X152410952Y-68874819D02*
X152410952Y-67874819D01*
X152410952Y-67874819D02*
X152315714Y-68017676D01*
X152315714Y-68017676D02*
X152220476Y-68112914D01*
X152220476Y-68112914D02*
X152125238Y-68160533D01*
X137329819Y-49051404D02*
X138139342Y-49051404D01*
X138139342Y-49051404D02*
X138234580Y-49003785D01*
X138234580Y-49003785D02*
X138282200Y-48956166D01*
X138282200Y-48956166D02*
X138329819Y-48860928D01*
X138329819Y-48860928D02*
X138329819Y-48670452D01*
X138329819Y-48670452D02*
X138282200Y-48575214D01*
X138282200Y-48575214D02*
X138234580Y-48527595D01*
X138234580Y-48527595D02*
X138139342Y-48479976D01*
X138139342Y-48479976D02*
X137329819Y-48479976D01*
X138329819Y-47479976D02*
X138329819Y-48051404D01*
X138329819Y-47765690D02*
X137329819Y-47765690D01*
X137329819Y-47765690D02*
X137472676Y-47860928D01*
X137472676Y-47860928D02*
X137567914Y-47956166D01*
X137567914Y-47956166D02*
X137615533Y-48051404D01*
X122541667Y-106457200D02*
X122684524Y-106504819D01*
X122684524Y-106504819D02*
X122922619Y-106504819D01*
X122922619Y-106504819D02*
X123017857Y-106457200D01*
X123017857Y-106457200D02*
X123065476Y-106409580D01*
X123065476Y-106409580D02*
X123113095Y-106314342D01*
X123113095Y-106314342D02*
X123113095Y-106219104D01*
X123113095Y-106219104D02*
X123065476Y-106123866D01*
X123065476Y-106123866D02*
X123017857Y-106076247D01*
X123017857Y-106076247D02*
X122922619Y-106028628D01*
X122922619Y-106028628D02*
X122732143Y-105981009D01*
X122732143Y-105981009D02*
X122636905Y-105933390D01*
X122636905Y-105933390D02*
X122589286Y-105885771D01*
X122589286Y-105885771D02*
X122541667Y-105790533D01*
X122541667Y-105790533D02*
X122541667Y-105695295D01*
X122541667Y-105695295D02*
X122589286Y-105600057D01*
X122589286Y-105600057D02*
X122636905Y-105552438D01*
X122636905Y-105552438D02*
X122732143Y-105504819D01*
X122732143Y-105504819D02*
X122970238Y-105504819D01*
X122970238Y-105504819D02*
X123113095Y-105552438D01*
X123446429Y-105504819D02*
X123684524Y-106504819D01*
X123684524Y-106504819D02*
X123875000Y-105790533D01*
X123875000Y-105790533D02*
X124065476Y-106504819D01*
X124065476Y-106504819D02*
X124303572Y-105504819D01*
X124589286Y-105504819D02*
X125208333Y-105504819D01*
X125208333Y-105504819D02*
X124875000Y-105885771D01*
X124875000Y-105885771D02*
X125017857Y-105885771D01*
X125017857Y-105885771D02*
X125113095Y-105933390D01*
X125113095Y-105933390D02*
X125160714Y-105981009D01*
X125160714Y-105981009D02*
X125208333Y-106076247D01*
X125208333Y-106076247D02*
X125208333Y-106314342D01*
X125208333Y-106314342D02*
X125160714Y-106409580D01*
X125160714Y-106409580D02*
X125113095Y-106457200D01*
X125113095Y-106457200D02*
X125017857Y-106504819D01*
X125017857Y-106504819D02*
X124732143Y-106504819D01*
X124732143Y-106504819D02*
X124636905Y-106457200D01*
X124636905Y-106457200D02*
X124589286Y-106409580D01*
X123166667Y-90407200D02*
X123309524Y-90454819D01*
X123309524Y-90454819D02*
X123547619Y-90454819D01*
X123547619Y-90454819D02*
X123642857Y-90407200D01*
X123642857Y-90407200D02*
X123690476Y-90359580D01*
X123690476Y-90359580D02*
X123738095Y-90264342D01*
X123738095Y-90264342D02*
X123738095Y-90169104D01*
X123738095Y-90169104D02*
X123690476Y-90073866D01*
X123690476Y-90073866D02*
X123642857Y-90026247D01*
X123642857Y-90026247D02*
X123547619Y-89978628D01*
X123547619Y-89978628D02*
X123357143Y-89931009D01*
X123357143Y-89931009D02*
X123261905Y-89883390D01*
X123261905Y-89883390D02*
X123214286Y-89835771D01*
X123214286Y-89835771D02*
X123166667Y-89740533D01*
X123166667Y-89740533D02*
X123166667Y-89645295D01*
X123166667Y-89645295D02*
X123214286Y-89550057D01*
X123214286Y-89550057D02*
X123261905Y-89502438D01*
X123261905Y-89502438D02*
X123357143Y-89454819D01*
X123357143Y-89454819D02*
X123595238Y-89454819D01*
X123595238Y-89454819D02*
X123738095Y-89502438D01*
X124071429Y-89454819D02*
X124309524Y-90454819D01*
X124309524Y-90454819D02*
X124500000Y-89740533D01*
X124500000Y-89740533D02*
X124690476Y-90454819D01*
X124690476Y-90454819D02*
X124928572Y-89454819D01*
X125261905Y-89550057D02*
X125309524Y-89502438D01*
X125309524Y-89502438D02*
X125404762Y-89454819D01*
X125404762Y-89454819D02*
X125642857Y-89454819D01*
X125642857Y-89454819D02*
X125738095Y-89502438D01*
X125738095Y-89502438D02*
X125785714Y-89550057D01*
X125785714Y-89550057D02*
X125833333Y-89645295D01*
X125833333Y-89645295D02*
X125833333Y-89740533D01*
X125833333Y-89740533D02*
X125785714Y-89883390D01*
X125785714Y-89883390D02*
X125214286Y-90454819D01*
X125214286Y-90454819D02*
X125833333Y-90454819D01*
X123166667Y-73857200D02*
X123309524Y-73904819D01*
X123309524Y-73904819D02*
X123547619Y-73904819D01*
X123547619Y-73904819D02*
X123642857Y-73857200D01*
X123642857Y-73857200D02*
X123690476Y-73809580D01*
X123690476Y-73809580D02*
X123738095Y-73714342D01*
X123738095Y-73714342D02*
X123738095Y-73619104D01*
X123738095Y-73619104D02*
X123690476Y-73523866D01*
X123690476Y-73523866D02*
X123642857Y-73476247D01*
X123642857Y-73476247D02*
X123547619Y-73428628D01*
X123547619Y-73428628D02*
X123357143Y-73381009D01*
X123357143Y-73381009D02*
X123261905Y-73333390D01*
X123261905Y-73333390D02*
X123214286Y-73285771D01*
X123214286Y-73285771D02*
X123166667Y-73190533D01*
X123166667Y-73190533D02*
X123166667Y-73095295D01*
X123166667Y-73095295D02*
X123214286Y-73000057D01*
X123214286Y-73000057D02*
X123261905Y-72952438D01*
X123261905Y-72952438D02*
X123357143Y-72904819D01*
X123357143Y-72904819D02*
X123595238Y-72904819D01*
X123595238Y-72904819D02*
X123738095Y-72952438D01*
X124071429Y-72904819D02*
X124309524Y-73904819D01*
X124309524Y-73904819D02*
X124500000Y-73190533D01*
X124500000Y-73190533D02*
X124690476Y-73904819D01*
X124690476Y-73904819D02*
X124928572Y-72904819D01*
X125833333Y-73904819D02*
X125261905Y-73904819D01*
X125547619Y-73904819D02*
X125547619Y-72904819D01*
X125547619Y-72904819D02*
X125452381Y-73047676D01*
X125452381Y-73047676D02*
X125357143Y-73142914D01*
X125357143Y-73142914D02*
X125261905Y-73190533D01*
X171374819Y-107860238D02*
X170898628Y-108193571D01*
X171374819Y-108431666D02*
X170374819Y-108431666D01*
X170374819Y-108431666D02*
X170374819Y-108050714D01*
X170374819Y-108050714D02*
X170422438Y-107955476D01*
X170422438Y-107955476D02*
X170470057Y-107907857D01*
X170470057Y-107907857D02*
X170565295Y-107860238D01*
X170565295Y-107860238D02*
X170708152Y-107860238D01*
X170708152Y-107860238D02*
X170803390Y-107907857D01*
X170803390Y-107907857D02*
X170851009Y-107955476D01*
X170851009Y-107955476D02*
X170898628Y-108050714D01*
X170898628Y-108050714D02*
X170898628Y-108431666D01*
X170374819Y-107574523D02*
X171374819Y-107241190D01*
X171374819Y-107241190D02*
X170374819Y-106907857D01*
X170470057Y-106622142D02*
X170422438Y-106574523D01*
X170422438Y-106574523D02*
X170374819Y-106479285D01*
X170374819Y-106479285D02*
X170374819Y-106241190D01*
X170374819Y-106241190D02*
X170422438Y-106145952D01*
X170422438Y-106145952D02*
X170470057Y-106098333D01*
X170470057Y-106098333D02*
X170565295Y-106050714D01*
X170565295Y-106050714D02*
X170660533Y-106050714D01*
X170660533Y-106050714D02*
X170803390Y-106098333D01*
X170803390Y-106098333D02*
X171374819Y-106669761D01*
X171374819Y-106669761D02*
X171374819Y-106050714D01*
X146634761Y-56704819D02*
X146301428Y-56228628D01*
X146063333Y-56704819D02*
X146063333Y-55704819D01*
X146063333Y-55704819D02*
X146444285Y-55704819D01*
X146444285Y-55704819D02*
X146539523Y-55752438D01*
X146539523Y-55752438D02*
X146587142Y-55800057D01*
X146587142Y-55800057D02*
X146634761Y-55895295D01*
X146634761Y-55895295D02*
X146634761Y-56038152D01*
X146634761Y-56038152D02*
X146587142Y-56133390D01*
X146587142Y-56133390D02*
X146539523Y-56181009D01*
X146539523Y-56181009D02*
X146444285Y-56228628D01*
X146444285Y-56228628D02*
X146063333Y-56228628D01*
X146920476Y-55704819D02*
X147253809Y-56704819D01*
X147253809Y-56704819D02*
X147587142Y-55704819D01*
X148444285Y-56704819D02*
X147872857Y-56704819D01*
X148158571Y-56704819D02*
X148158571Y-55704819D01*
X148158571Y-55704819D02*
X148063333Y-55847676D01*
X148063333Y-55847676D02*
X147968095Y-55942914D01*
X147968095Y-55942914D02*
X147872857Y-55990533D01*
X125143333Y-132534819D02*
X124810000Y-132058628D01*
X124571905Y-132534819D02*
X124571905Y-131534819D01*
X124571905Y-131534819D02*
X124952857Y-131534819D01*
X124952857Y-131534819D02*
X125048095Y-131582438D01*
X125048095Y-131582438D02*
X125095714Y-131630057D01*
X125095714Y-131630057D02*
X125143333Y-131725295D01*
X125143333Y-131725295D02*
X125143333Y-131868152D01*
X125143333Y-131868152D02*
X125095714Y-131963390D01*
X125095714Y-131963390D02*
X125048095Y-132011009D01*
X125048095Y-132011009D02*
X124952857Y-132058628D01*
X124952857Y-132058628D02*
X124571905Y-132058628D01*
X126000476Y-131868152D02*
X126000476Y-132534819D01*
X125762381Y-131487200D02*
X125524286Y-132201485D01*
X125524286Y-132201485D02*
X126143333Y-132201485D01*
X125023333Y-116534819D02*
X124690000Y-116058628D01*
X124451905Y-116534819D02*
X124451905Y-115534819D01*
X124451905Y-115534819D02*
X124832857Y-115534819D01*
X124832857Y-115534819D02*
X124928095Y-115582438D01*
X124928095Y-115582438D02*
X124975714Y-115630057D01*
X124975714Y-115630057D02*
X125023333Y-115725295D01*
X125023333Y-115725295D02*
X125023333Y-115868152D01*
X125023333Y-115868152D02*
X124975714Y-115963390D01*
X124975714Y-115963390D02*
X124928095Y-116011009D01*
X124928095Y-116011009D02*
X124832857Y-116058628D01*
X124832857Y-116058628D02*
X124451905Y-116058628D01*
X125356667Y-115534819D02*
X125975714Y-115534819D01*
X125975714Y-115534819D02*
X125642381Y-115915771D01*
X125642381Y-115915771D02*
X125785238Y-115915771D01*
X125785238Y-115915771D02*
X125880476Y-115963390D01*
X125880476Y-115963390D02*
X125928095Y-116011009D01*
X125928095Y-116011009D02*
X125975714Y-116106247D01*
X125975714Y-116106247D02*
X125975714Y-116344342D01*
X125975714Y-116344342D02*
X125928095Y-116439580D01*
X125928095Y-116439580D02*
X125880476Y-116487200D01*
X125880476Y-116487200D02*
X125785238Y-116534819D01*
X125785238Y-116534819D02*
X125499524Y-116534819D01*
X125499524Y-116534819D02*
X125404286Y-116487200D01*
X125404286Y-116487200D02*
X125356667Y-116439580D01*
X126023333Y-100034819D02*
X125690000Y-99558628D01*
X125451905Y-100034819D02*
X125451905Y-99034819D01*
X125451905Y-99034819D02*
X125832857Y-99034819D01*
X125832857Y-99034819D02*
X125928095Y-99082438D01*
X125928095Y-99082438D02*
X125975714Y-99130057D01*
X125975714Y-99130057D02*
X126023333Y-99225295D01*
X126023333Y-99225295D02*
X126023333Y-99368152D01*
X126023333Y-99368152D02*
X125975714Y-99463390D01*
X125975714Y-99463390D02*
X125928095Y-99511009D01*
X125928095Y-99511009D02*
X125832857Y-99558628D01*
X125832857Y-99558628D02*
X125451905Y-99558628D01*
X126404286Y-99130057D02*
X126451905Y-99082438D01*
X126451905Y-99082438D02*
X126547143Y-99034819D01*
X126547143Y-99034819D02*
X126785238Y-99034819D01*
X126785238Y-99034819D02*
X126880476Y-99082438D01*
X126880476Y-99082438D02*
X126928095Y-99130057D01*
X126928095Y-99130057D02*
X126975714Y-99225295D01*
X126975714Y-99225295D02*
X126975714Y-99320533D01*
X126975714Y-99320533D02*
X126928095Y-99463390D01*
X126928095Y-99463390D02*
X126356667Y-100034819D01*
X126356667Y-100034819D02*
X126975714Y-100034819D01*
X125833333Y-84034819D02*
X125500000Y-83558628D01*
X125261905Y-84034819D02*
X125261905Y-83034819D01*
X125261905Y-83034819D02*
X125642857Y-83034819D01*
X125642857Y-83034819D02*
X125738095Y-83082438D01*
X125738095Y-83082438D02*
X125785714Y-83130057D01*
X125785714Y-83130057D02*
X125833333Y-83225295D01*
X125833333Y-83225295D02*
X125833333Y-83368152D01*
X125833333Y-83368152D02*
X125785714Y-83463390D01*
X125785714Y-83463390D02*
X125738095Y-83511009D01*
X125738095Y-83511009D02*
X125642857Y-83558628D01*
X125642857Y-83558628D02*
X125261905Y-83558628D01*
X126785714Y-84034819D02*
X126214286Y-84034819D01*
X126500000Y-84034819D02*
X126500000Y-83034819D01*
X126500000Y-83034819D02*
X126404762Y-83177676D01*
X126404762Y-83177676D02*
X126309524Y-83272914D01*
X126309524Y-83272914D02*
X126214286Y-83320533D01*
X122666667Y-122857200D02*
X122809524Y-122904819D01*
X122809524Y-122904819D02*
X123047619Y-122904819D01*
X123047619Y-122904819D02*
X123142857Y-122857200D01*
X123142857Y-122857200D02*
X123190476Y-122809580D01*
X123190476Y-122809580D02*
X123238095Y-122714342D01*
X123238095Y-122714342D02*
X123238095Y-122619104D01*
X123238095Y-122619104D02*
X123190476Y-122523866D01*
X123190476Y-122523866D02*
X123142857Y-122476247D01*
X123142857Y-122476247D02*
X123047619Y-122428628D01*
X123047619Y-122428628D02*
X122857143Y-122381009D01*
X122857143Y-122381009D02*
X122761905Y-122333390D01*
X122761905Y-122333390D02*
X122714286Y-122285771D01*
X122714286Y-122285771D02*
X122666667Y-122190533D01*
X122666667Y-122190533D02*
X122666667Y-122095295D01*
X122666667Y-122095295D02*
X122714286Y-122000057D01*
X122714286Y-122000057D02*
X122761905Y-121952438D01*
X122761905Y-121952438D02*
X122857143Y-121904819D01*
X122857143Y-121904819D02*
X123095238Y-121904819D01*
X123095238Y-121904819D02*
X123238095Y-121952438D01*
X123571429Y-121904819D02*
X123809524Y-122904819D01*
X123809524Y-122904819D02*
X124000000Y-122190533D01*
X124000000Y-122190533D02*
X124190476Y-122904819D01*
X124190476Y-122904819D02*
X124428572Y-121904819D01*
X125238095Y-122238152D02*
X125238095Y-122904819D01*
X125000000Y-121857200D02*
X124761905Y-122571485D01*
X124761905Y-122571485D02*
X125380952Y-122571485D01*
X145905714Y-82889104D02*
X146381904Y-82889104D01*
X145810476Y-83174819D02*
X146143809Y-82174819D01*
X146143809Y-82174819D02*
X146477142Y-83174819D01*
X147334285Y-83174819D02*
X146762857Y-83174819D01*
X147048571Y-83174819D02*
X147048571Y-82174819D01*
X147048571Y-82174819D02*
X146953333Y-82317676D01*
X146953333Y-82317676D02*
X146858095Y-82412914D01*
X146858095Y-82412914D02*
X146762857Y-82460533D01*
X145358095Y-122814819D02*
X145358095Y-123624342D01*
X145358095Y-123624342D02*
X145405714Y-123719580D01*
X145405714Y-123719580D02*
X145453333Y-123767200D01*
X145453333Y-123767200D02*
X145548571Y-123814819D01*
X145548571Y-123814819D02*
X145739047Y-123814819D01*
X145739047Y-123814819D02*
X145834285Y-123767200D01*
X145834285Y-123767200D02*
X145881904Y-123719580D01*
X145881904Y-123719580D02*
X145929523Y-123624342D01*
X145929523Y-123624342D02*
X145929523Y-122814819D01*
X146358095Y-123767200D02*
X146500952Y-123814819D01*
X146500952Y-123814819D02*
X146739047Y-123814819D01*
X146739047Y-123814819D02*
X146834285Y-123767200D01*
X146834285Y-123767200D02*
X146881904Y-123719580D01*
X146881904Y-123719580D02*
X146929523Y-123624342D01*
X146929523Y-123624342D02*
X146929523Y-123529104D01*
X146929523Y-123529104D02*
X146881904Y-123433866D01*
X146881904Y-123433866D02*
X146834285Y-123386247D01*
X146834285Y-123386247D02*
X146739047Y-123338628D01*
X146739047Y-123338628D02*
X146548571Y-123291009D01*
X146548571Y-123291009D02*
X146453333Y-123243390D01*
X146453333Y-123243390D02*
X146405714Y-123195771D01*
X146405714Y-123195771D02*
X146358095Y-123100533D01*
X146358095Y-123100533D02*
X146358095Y-123005295D01*
X146358095Y-123005295D02*
X146405714Y-122910057D01*
X146405714Y-122910057D02*
X146453333Y-122862438D01*
X146453333Y-122862438D02*
X146548571Y-122814819D01*
X146548571Y-122814819D02*
X146786666Y-122814819D01*
X146786666Y-122814819D02*
X146929523Y-122862438D01*
X147691428Y-123291009D02*
X147834285Y-123338628D01*
X147834285Y-123338628D02*
X147881904Y-123386247D01*
X147881904Y-123386247D02*
X147929523Y-123481485D01*
X147929523Y-123481485D02*
X147929523Y-123624342D01*
X147929523Y-123624342D02*
X147881904Y-123719580D01*
X147881904Y-123719580D02*
X147834285Y-123767200D01*
X147834285Y-123767200D02*
X147739047Y-123814819D01*
X147739047Y-123814819D02*
X147358095Y-123814819D01*
X147358095Y-123814819D02*
X147358095Y-122814819D01*
X147358095Y-122814819D02*
X147691428Y-122814819D01*
X147691428Y-122814819D02*
X147786666Y-122862438D01*
X147786666Y-122862438D02*
X147834285Y-122910057D01*
X147834285Y-122910057D02*
X147881904Y-123005295D01*
X147881904Y-123005295D02*
X147881904Y-123100533D01*
X147881904Y-123100533D02*
X147834285Y-123195771D01*
X147834285Y-123195771D02*
X147786666Y-123243390D01*
X147786666Y-123243390D02*
X147691428Y-123291009D01*
X147691428Y-123291009D02*
X147358095Y-123291009D01*
D11*
%TO.C,J1*%
X147620000Y-71300000D02*
X147620000Y-73500000D01*
X147960000Y-71590000D02*
X147960000Y-73500000D01*
X147960000Y-71590000D02*
X156090000Y-71590000D01*
X147960000Y-73500000D02*
X147960000Y-78330000D01*
X148920000Y-71300000D02*
X147620000Y-71300000D01*
X149230000Y-70200000D02*
X154820000Y-70200000D01*
X149230000Y-70450000D02*
X154820000Y-70450000D01*
X149230000Y-71340000D02*
X154820000Y-71340000D01*
X149230000Y-71590000D02*
X149230000Y-70200000D01*
X151640000Y-78070000D02*
X152410000Y-78070000D01*
X151640000Y-78330000D02*
X147960000Y-78330000D01*
X151640000Y-78330000D02*
X151640000Y-78070000D01*
X152410000Y-78070000D02*
X152410000Y-78330000D01*
X152410000Y-78330000D02*
X156090000Y-78330000D01*
X154820000Y-71590000D02*
X154820000Y-70200000D01*
X156090000Y-71590000D02*
X156090000Y-73500000D01*
X156090000Y-78330000D02*
X156090000Y-73500000D01*
%TO.C,U1*%
X141115000Y-50425500D02*
X140635000Y-50425500D01*
X140875000Y-50089500D01*
X141115000Y-50425500D01*
G36*
X141115000Y-50425500D02*
G01*
X140635000Y-50425500D01*
X140875000Y-50089500D01*
X141115000Y-50425500D01*
G37*
X154225000Y-20689500D02*
X154225000Y-49889500D01*
X138775000Y-20689500D02*
X154225000Y-20689500D01*
X150019000Y-44225500D02*
X150019000Y-49559500D01*
X139351000Y-44225500D02*
X150019000Y-44225500D01*
X150019000Y-49559500D02*
X150019000Y-49559500D01*
X150019000Y-49559500D02*
X139351000Y-49559500D01*
X139351000Y-49559500D02*
X139351000Y-44225500D01*
X139351000Y-49559500D02*
X139351000Y-49559500D01*
X154225000Y-49889500D02*
X138775000Y-49889500D01*
X138775000Y-49889500D02*
X138775000Y-20689500D01*
X138775000Y-49889500D02*
X138775000Y-49889500D01*
%TO.C,SW3*%
X126325000Y-112550000D02*
X126325000Y-112500000D01*
X126325000Y-109350000D02*
X126325000Y-110850000D01*
X126325000Y-107650000D02*
X126325000Y-107700000D01*
X121425000Y-112550000D02*
X126325000Y-112550000D01*
X121425000Y-112550000D02*
X121425000Y-112500000D01*
X121425000Y-109350000D02*
X121425000Y-110850000D01*
X121425000Y-107650000D02*
X126325000Y-107650000D01*
X121425000Y-107650000D02*
X121425000Y-107700000D01*
%TO.C,SW2*%
X126950000Y-95950000D02*
X126950000Y-95900000D01*
X126950000Y-92750000D02*
X126950000Y-94250000D01*
X126950000Y-91050000D02*
X126950000Y-91100000D01*
X122050000Y-95950000D02*
X126950000Y-95950000D01*
X122050000Y-95950000D02*
X122050000Y-95900000D01*
X122050000Y-92750000D02*
X122050000Y-94250000D01*
X122050000Y-91050000D02*
X126950000Y-91050000D01*
X122050000Y-91050000D02*
X122050000Y-91100000D01*
%TO.C,SW1*%
X126950000Y-79950000D02*
X126950000Y-79900000D01*
X126950000Y-76750000D02*
X126950000Y-78250000D01*
X126950000Y-75050000D02*
X126950000Y-75100000D01*
X122050000Y-79950000D02*
X126950000Y-79950000D01*
X122050000Y-79950000D02*
X122050000Y-79900000D01*
X122050000Y-76750000D02*
X122050000Y-78250000D01*
X122050000Y-75050000D02*
X126950000Y-75050000D01*
X122050000Y-75050000D02*
X122050000Y-75100000D01*
%TO.C,RV2*%
X166097000Y-144885000D02*
X160550000Y-144885000D01*
X169790000Y-144885000D02*
X167743000Y-144885000D01*
X160550000Y-141501000D02*
X160550000Y-144885000D01*
X169790000Y-140301000D02*
X169790000Y-144885000D01*
X165170000Y-137265000D02*
X164420000Y-136515000D01*
X166670000Y-137265000D02*
X163670000Y-137265000D01*
X165920000Y-136515000D02*
X165170000Y-137265000D01*
X165920000Y-78015000D02*
X165170000Y-77265000D01*
X169790000Y-77501000D02*
X169790000Y-137030000D01*
X165170000Y-77265000D02*
X165170000Y-137265000D01*
X165170000Y-77265000D02*
X164420000Y-78015000D01*
X166670000Y-77265000D02*
X163670000Y-77265000D01*
X160550000Y-76301000D02*
X160550000Y-138230000D01*
X160550000Y-69645000D02*
X160550000Y-73030000D01*
X162597000Y-69645000D02*
X160550000Y-69645000D01*
X165745000Y-69645000D02*
X164242000Y-69645000D01*
X169790000Y-69645000D02*
X169790000Y-74230000D01*
X169790000Y-69645000D02*
X168095000Y-69645000D01*
X166920000Y-69340000D02*
X167420000Y-68840000D01*
X166420000Y-68840000D02*
X166920000Y-69340000D01*
X167420000Y-68840000D02*
X166420000Y-68840000D01*
%TO.C,RV1*%
X108805000Y-59750000D02*
X108805000Y-60750000D01*
X108805000Y-60750000D02*
X109305000Y-60250000D01*
X109305000Y-60250000D02*
X108805000Y-59750000D01*
X109610000Y-57380000D02*
X109610000Y-59075000D01*
X109610000Y-57380000D02*
X114195000Y-57380000D01*
X109610000Y-61425000D02*
X109610000Y-62928000D01*
X109610000Y-64573000D02*
X109610000Y-66620000D01*
X109610000Y-66620000D02*
X112995000Y-66620000D01*
X116266000Y-66620000D02*
X178195000Y-66620000D01*
X117230000Y-60500000D02*
X117230000Y-63500000D01*
X117230000Y-62000000D02*
X117980000Y-62750000D01*
X117230000Y-62000000D02*
X177230000Y-62000000D01*
X117466000Y-57380000D02*
X176995000Y-57380000D01*
X117980000Y-61250000D02*
X117230000Y-62000000D01*
X176480000Y-61250000D02*
X177230000Y-62000000D01*
X177230000Y-60500000D02*
X177230000Y-63500000D01*
X177230000Y-62000000D02*
X176480000Y-62750000D01*
X180266000Y-57380000D02*
X184850000Y-57380000D01*
X181466000Y-66620000D02*
X184850000Y-66620000D01*
X184850000Y-57380000D02*
X184850000Y-59427000D01*
X184850000Y-61073000D02*
X184850000Y-66620000D01*
%TO.C,R4*%
X122440000Y-134000000D02*
X123390000Y-134000000D01*
X123390000Y-133080000D02*
X123390000Y-134920000D01*
X123390000Y-134920000D02*
X127230000Y-134920000D01*
X127230000Y-133080000D02*
X123390000Y-133080000D01*
X127230000Y-134920000D02*
X127230000Y-133080000D01*
X128180000Y-134000000D02*
X127230000Y-134000000D01*
%TO.C,R3*%
X128060000Y-118000000D02*
X127110000Y-118000000D01*
X127110000Y-118920000D02*
X127110000Y-117080000D01*
X127110000Y-117080000D02*
X123270000Y-117080000D01*
X123270000Y-118920000D02*
X127110000Y-118920000D01*
X123270000Y-117080000D02*
X123270000Y-118920000D01*
X122320000Y-118000000D02*
X123270000Y-118000000D01*
%TO.C,R2*%
X129060000Y-101500000D02*
X128110000Y-101500000D01*
X128110000Y-102420000D02*
X128110000Y-100580000D01*
X128110000Y-100580000D02*
X124270000Y-100580000D01*
X124270000Y-102420000D02*
X128110000Y-102420000D01*
X124270000Y-100580000D02*
X124270000Y-102420000D01*
X123320000Y-101500000D02*
X124270000Y-101500000D01*
%TO.C,R1*%
X128870000Y-85500000D02*
X127920000Y-85500000D01*
X127920000Y-86420000D02*
X127920000Y-84580000D01*
X127920000Y-84580000D02*
X124080000Y-84580000D01*
X124080000Y-86420000D02*
X127920000Y-86420000D01*
X124080000Y-84580000D02*
X124080000Y-86420000D01*
X123130000Y-85500000D02*
X124080000Y-85500000D01*
%TO.C,SW4*%
X126450000Y-128950000D02*
X126450000Y-128900000D01*
X126450000Y-125750000D02*
X126450000Y-127250000D01*
X126450000Y-124050000D02*
X126450000Y-124100000D01*
X121550000Y-128950000D02*
X126450000Y-128950000D01*
X121550000Y-128950000D02*
X121550000Y-128900000D01*
X121550000Y-125750000D02*
X121550000Y-127250000D01*
X121550000Y-124050000D02*
X126450000Y-124050000D01*
X121550000Y-124050000D02*
X121550000Y-124100000D01*
%TO.C,A1*%
X155640000Y-127300000D02*
X155640000Y-83860000D01*
X155640000Y-127300000D02*
X150560000Y-127300000D01*
X155640000Y-83860000D02*
X137600000Y-83860000D01*
X152970000Y-124630000D02*
X155640000Y-124630000D01*
X152970000Y-86530000D02*
X155640000Y-86530000D01*
X152970000Y-86530000D02*
X152970000Y-124630000D01*
X150560000Y-129840000D02*
X142680000Y-129840000D01*
X150560000Y-119420000D02*
X150560000Y-129840000D01*
X142680000Y-129840000D02*
X142680000Y-119420000D01*
X142680000Y-119420000D02*
X150560000Y-119420000D01*
X140270000Y-124630000D02*
X137600000Y-124630000D01*
X140270000Y-89070000D02*
X140270000Y-124630000D01*
X140270000Y-89070000D02*
X140270000Y-86530000D01*
X140270000Y-89070000D02*
X137600000Y-89070000D01*
X140270000Y-86530000D02*
X137600000Y-86530000D01*
X137600000Y-127300000D02*
X142680000Y-127300000D01*
X137600000Y-89070000D02*
X137600000Y-127300000D01*
X137600000Y-83860000D02*
X137600000Y-86530000D01*
%TD*%
M02*
