%TF.GenerationSoftware,KiCad,Pcbnew,8.0.7*%
%TF.CreationDate,2025-01-13T00:49:29+02:00*%
%TF.ProjectId,RC-CarPCB,52432d43-6172-4504-9342-2e6b69636164,rev?*%
%TF.SameCoordinates,Original*%
%TF.FileFunction,Copper,L1,Top*%
%TF.FilePolarity,Positive*%
%FSLAX46Y46*%
G04 Gerber Fmt 4.6, Leading zero omitted, Abs format (unit mm)*
G04 Created by KiCad (PCBNEW 8.0.7) date 2025-01-13 00:49:29*
%MOMM*%
%LPD*%
G01*
G04 APERTURE LIST*
G04 Aperture macros list*
%AMRoundRect*
0 Rectangle with rounded corners*
0 $1 Rounding radius*
0 $2 $3 $4 $5 $6 $7 $8 $9 X,Y pos of 4 corners*
0 Add a 4 corners polygon primitive as box body*
4,1,4,$2,$3,$4,$5,$6,$7,$8,$9,$2,$3,0*
0 Add four circle primitives for the rounded corners*
1,1,$1+$1,$2,$3*
1,1,$1+$1,$4,$5*
1,1,$1+$1,$6,$7*
1,1,$1+$1,$8,$9*
0 Add four rect primitives between the rounded corners*
20,1,$1+$1,$2,$3,$4,$5,0*
20,1,$1+$1,$4,$5,$6,$7,0*
20,1,$1+$1,$6,$7,$8,$9,0*
20,1,$1+$1,$8,$9,$2,$3,0*%
G04 Aperture macros list end*
%TA.AperFunction,ComponentPad*%
%ADD10R,3.000000X3.000000*%
%TD*%
%TA.AperFunction,ComponentPad*%
%ADD11C,3.000000*%
%TD*%
%TA.AperFunction,ComponentPad*%
%ADD12C,1.700000*%
%TD*%
%TA.AperFunction,ComponentPad*%
%ADD13R,1.700000X1.700000*%
%TD*%
%TA.AperFunction,SMDPad,CuDef*%
%ADD14RoundRect,0.250000X-0.525000X-0.250000X0.525000X-0.250000X0.525000X0.250000X-0.525000X0.250000X0*%
%TD*%
%TA.AperFunction,ComponentPad*%
%ADD15C,2.700000*%
%TD*%
%TA.AperFunction,ComponentPad*%
%ADD16C,1.750000*%
%TD*%
%TA.AperFunction,ComponentPad*%
%ADD17R,1.750000X1.750000*%
%TD*%
%TA.AperFunction,ComponentPad*%
%ADD18C,1.400000*%
%TD*%
%TA.AperFunction,ComponentPad*%
%ADD19O,1.400000X1.400000*%
%TD*%
%TA.AperFunction,ComponentPad*%
%ADD20O,1.600000X1.600000*%
%TD*%
%TA.AperFunction,ComponentPad*%
%ADD21R,1.600000X1.600000*%
%TD*%
%TA.AperFunction,ViaPad*%
%ADD22C,0.600000*%
%TD*%
%TA.AperFunction,Conductor*%
%ADD23C,0.200000*%
%TD*%
G04 APERTURE END LIST*
D10*
%TO.P,J1,1,Pin_1*%
%TO.N,Net-(J1-Pin_1)*%
X150120000Y-73500000D03*
D11*
%TO.P,J1,2,Pin_2*%
%TO.N,Net-(A1-VIN)*%
X154000000Y-73500000D03*
%TD*%
D12*
%TO.P,U1,8,IRQ*%
%TO.N,unconnected-(U1-IRQ-Pad8)*%
X148495000Y-45749500D03*
%TO.P,U1,7,MISO*%
%TO.N,Net-(A1-D11)*%
X148495000Y-48289500D03*
%TO.P,U1,6,MOSI*%
%TO.N,Net-(A1-D12)*%
X145955000Y-45749500D03*
%TO.P,U1,5,SCK*%
%TO.N,Net-(A1-D13)*%
X145955000Y-48289500D03*
%TO.P,U1,4,~{CSN}*%
%TO.N,Net-(A1-D8)*%
X143415000Y-45749500D03*
%TO.P,U1,3,CE*%
%TO.N,Net-(A1-D7)*%
X143415000Y-48289500D03*
%TO.P,U1,2,VCC*%
%TO.N,Net-(A1-3V3)*%
X140875000Y-45749500D03*
D13*
%TO.P,U1,1,GND*%
%TO.N,Net-(J1-Pin_1)*%
X140875000Y-48289500D03*
%TD*%
D14*
%TO.P,SW3,2,B*%
%TO.N,Net-(A1-D4)*%
X126500000Y-111700000D03*
X121250000Y-111700000D03*
%TO.P,SW3,1,A*%
%TO.N,Net-(A1-+5V)*%
X126500000Y-108500000D03*
X121250000Y-108500000D03*
%TD*%
%TO.P,SW2,2,B*%
%TO.N,Net-(A1-D3)*%
X127125000Y-95100000D03*
X121875000Y-95100000D03*
%TO.P,SW2,1,A*%
%TO.N,Net-(A1-+5V)*%
X127125000Y-91900000D03*
X121875000Y-91900000D03*
%TD*%
%TO.P,SW1,2,B*%
%TO.N,Net-(A1-D2)*%
X127125000Y-79100000D03*
X121875000Y-79100000D03*
%TO.P,SW1,1,A*%
%TO.N,Net-(A1-+5V)*%
X127125000Y-75900000D03*
X121875000Y-75900000D03*
%TD*%
D15*
%TO.P,RV2,MP*%
%TO.N,N/C*%
X160970000Y-139865000D03*
X169370000Y-138665000D03*
X169370000Y-75865000D03*
X160970000Y-74665000D03*
D16*
%TO.P,RV2,3,3*%
%TO.N,Net-(J1-Pin_1)*%
X166920000Y-144015000D03*
%TO.P,RV2,2,2*%
%TO.N,Net-(A1-A0)*%
X163420000Y-70515000D03*
D17*
%TO.P,RV2,1,1*%
%TO.N,Net-(A1-+5V)*%
X166920000Y-70515000D03*
%TD*%
%TO.P,RV1,1,1*%
%TO.N,Net-(A1-+5V)*%
X110480000Y-60250000D03*
D16*
%TO.P,RV1,2,2*%
%TO.N,Net-(A1-A1)*%
X110480000Y-63750000D03*
%TO.P,RV1,3,3*%
%TO.N,Net-(J1-Pin_1)*%
X183980000Y-60250000D03*
D15*
%TO.P,RV1,MP*%
%TO.N,N/C*%
X114630000Y-66200000D03*
X115830000Y-57800000D03*
X178630000Y-57800000D03*
X179830000Y-66200000D03*
%TD*%
D18*
%TO.P,R4,1*%
%TO.N,Net-(A1-D5)*%
X121500000Y-134000000D03*
D19*
%TO.P,R4,2*%
%TO.N,Net-(J1-Pin_1)*%
X129120000Y-134000000D03*
%TD*%
%TO.P,R3,2*%
%TO.N,Net-(J1-Pin_1)*%
X129000000Y-118000000D03*
D18*
%TO.P,R3,1*%
%TO.N,Net-(A1-D4)*%
X121380000Y-118000000D03*
%TD*%
D19*
%TO.P,R2,2*%
%TO.N,Net-(J1-Pin_1)*%
X130000000Y-101500000D03*
D18*
%TO.P,R2,1*%
%TO.N,Net-(A1-D3)*%
X122380000Y-101500000D03*
%TD*%
D19*
%TO.P,R1,2*%
%TO.N,Net-(J1-Pin_1)*%
X129810000Y-85500000D03*
D18*
%TO.P,R1,1*%
%TO.N,Net-(A1-D2)*%
X122190000Y-85500000D03*
%TD*%
D14*
%TO.P,SW4,2,B*%
%TO.N,Net-(A1-D5)*%
X126625000Y-128100000D03*
X121375000Y-128100000D03*
%TO.P,SW4,1,A*%
%TO.N,Net-(A1-+5V)*%
X126625000Y-124900000D03*
X121375000Y-124900000D03*
%TD*%
D20*
%TO.P,A1,30,VIN*%
%TO.N,Net-(A1-VIN)*%
X154240000Y-87800000D03*
%TO.P,A1,29,GND*%
%TO.N,Net-(J1-Pin_1)*%
X154240000Y-90340000D03*
%TO.P,A1,28,~{RESET}*%
%TO.N,unconnected-(A1-~{RESET}-Pad28)*%
X154240000Y-92880000D03*
%TO.P,A1,27,+5V*%
%TO.N,Net-(A1-+5V)*%
X154240000Y-95420000D03*
%TO.P,A1,26,A7*%
%TO.N,unconnected-(A1-A7-Pad26)*%
X154240000Y-97960000D03*
%TO.P,A1,25,A6*%
%TO.N,unconnected-(A1-A6-Pad25)*%
X154240000Y-100500000D03*
%TO.P,A1,24,A5*%
%TO.N,unconnected-(A1-A5-Pad24)*%
X154240000Y-103040000D03*
%TO.P,A1,23,A4*%
%TO.N,unconnected-(A1-A4-Pad23)*%
X154240000Y-105580000D03*
%TO.P,A1,22,A3*%
%TO.N,unconnected-(A1-A3-Pad22)*%
X154240000Y-108120000D03*
%TO.P,A1,21,A2*%
%TO.N,unconnected-(A1-A2-Pad21)*%
X154240000Y-110660000D03*
%TO.P,A1,20,A1*%
%TO.N,Net-(A1-A1)*%
X154240000Y-113200000D03*
%TO.P,A1,19,A0*%
%TO.N,Net-(A1-A0)*%
X154240000Y-115740000D03*
%TO.P,A1,18,AREF*%
%TO.N,unconnected-(A1-AREF-Pad18)*%
X154240000Y-118280000D03*
%TO.P,A1,17,3V3*%
%TO.N,Net-(A1-3V3)*%
X154240000Y-120820000D03*
%TO.P,A1,16,D13*%
%TO.N,Net-(A1-D13)*%
X154240000Y-123360000D03*
%TO.P,A1,15,D12*%
%TO.N,Net-(A1-D12)*%
X139000000Y-123360000D03*
%TO.P,A1,14,D11*%
%TO.N,Net-(A1-D11)*%
X139000000Y-120820000D03*
%TO.P,A1,13,D10*%
%TO.N,unconnected-(A1-D10-Pad13)*%
X139000000Y-118280000D03*
%TO.P,A1,12,D9*%
%TO.N,unconnected-(A1-D9-Pad12)*%
X139000000Y-115740000D03*
%TO.P,A1,11,D8*%
%TO.N,Net-(A1-D8)*%
X139000000Y-113200000D03*
%TO.P,A1,10,D7*%
%TO.N,Net-(A1-D7)*%
X139000000Y-110660000D03*
%TO.P,A1,9,D6*%
%TO.N,unconnected-(A1-D6-Pad9)*%
X139000000Y-108120000D03*
%TO.P,A1,8,D5*%
%TO.N,Net-(A1-D5)*%
X139000000Y-105580000D03*
%TO.P,A1,7,D4*%
%TO.N,Net-(A1-D4)*%
X139000000Y-103040000D03*
%TO.P,A1,6,D3*%
%TO.N,Net-(A1-D3)*%
X139000000Y-100500000D03*
%TO.P,A1,5,D2*%
%TO.N,Net-(A1-D2)*%
X139000000Y-97960000D03*
%TO.P,A1,4,GND*%
%TO.N,Net-(J1-Pin_1)*%
X139000000Y-95420000D03*
%TO.P,A1,3,~{RESET}*%
%TO.N,unconnected-(A1-~{RESET}-Pad3)*%
X139000000Y-92880000D03*
%TO.P,A1,2,D0/RX*%
%TO.N,unconnected-(A1-D0{slash}RX-Pad2)*%
X139000000Y-90340000D03*
D21*
%TO.P,A1,1,D1/TX*%
%TO.N,unconnected-(A1-D1{slash}TX-Pad1)*%
X139000000Y-87800000D03*
%TD*%
D22*
%TO.N,Net-(A1-D8)*%
X142000000Y-104500000D03*
X142000000Y-110500000D03*
%TO.N,Net-(A1-3V3)*%
X150000000Y-93000000D03*
X150000000Y-101000000D03*
%TO.N,Net-(A1-D13)*%
X145955000Y-111000000D03*
X146000000Y-119000000D03*
%TD*%
D23*
%TO.N,Net-(A1-D12)*%
X150500000Y-43000000D02*
X145955000Y-43000000D01*
X139000000Y-123360000D02*
X147794117Y-114565883D01*
X147794117Y-114565883D02*
X147794117Y-53205883D01*
X147794117Y-53205883D02*
X150500000Y-50500000D01*
X150500000Y-50500000D02*
X150500000Y-43000000D01*
X145955000Y-43000000D02*
X145955000Y-45749500D01*
%TO.N,Net-(A1-D11)*%
X148495000Y-48289500D02*
X146500000Y-50284500D01*
X146500000Y-50284500D02*
X146500000Y-110696471D01*
X146500000Y-110696471D02*
X146555000Y-110751471D01*
X146555000Y-110751471D02*
X146555000Y-113265000D01*
X146555000Y-113265000D02*
X139000000Y-120820000D01*
%TO.N,Net-(A1-D13)*%
X145955000Y-48289500D02*
X145000000Y-49244500D01*
X145000000Y-49244500D02*
X145000000Y-110045000D01*
X145000000Y-110045000D02*
X145955000Y-111000000D01*
%TO.N,Net-(A1-D7)*%
X143415000Y-48289500D02*
X143415000Y-72585000D01*
X143415000Y-72585000D02*
X143000000Y-73000000D01*
X143000000Y-73000000D02*
X143000000Y-106660000D01*
X143000000Y-106660000D02*
X139000000Y-110660000D01*
%TO.N,Net-(A1-D8)*%
X141700000Y-110500000D02*
X142000000Y-110500000D01*
X139000000Y-113200000D02*
X141700000Y-110500000D01*
X142000000Y-85000000D02*
X142000000Y-104500000D01*
X143500000Y-43000000D02*
X135500000Y-43000000D01*
X143415000Y-45749500D02*
X143415000Y-43085000D01*
X143415000Y-43085000D02*
X143500000Y-43000000D01*
X135500000Y-43000000D02*
X135500000Y-78500000D01*
X135500000Y-78500000D02*
X142000000Y-85000000D01*
%TO.N,Net-(A1-3V3)*%
X150000000Y-93000000D02*
X150000000Y-101000000D01*
%TO.N,Net-(A1-D13)*%
X150360000Y-123360000D02*
X146000000Y-119000000D01*
X154240000Y-123360000D02*
X150360000Y-123360000D01*
%TO.N,Net-(A1-+5V)*%
X166920000Y-134580000D02*
X166920000Y-95500000D01*
X166920000Y-95500000D02*
X166920000Y-70515000D01*
X154240000Y-95420000D02*
X166840000Y-95420000D01*
X166840000Y-95420000D02*
X166920000Y-95500000D01*
X120000000Y-136500000D02*
X165000000Y-136500000D01*
X115400000Y-118925000D02*
X115400000Y-131900000D01*
X115400000Y-131900000D02*
X120000000Y-136500000D01*
X165000000Y-136500000D02*
X166920000Y-134580000D01*
X115400000Y-92000000D02*
X115400000Y-108500000D01*
X115400000Y-75900000D02*
X115400000Y-92000000D01*
X115400000Y-92000000D02*
X116000000Y-92000000D01*
X116000000Y-92000000D02*
X116100000Y-91900000D01*
X116100000Y-91900000D02*
X121875000Y-91900000D01*
X115400000Y-108500000D02*
X115400000Y-118925000D01*
X115400000Y-108500000D02*
X121250000Y-108500000D01*
X115000000Y-75500000D02*
X115400000Y-75900000D01*
X115400000Y-118925000D02*
X121375000Y-124900000D01*
X115000000Y-74500000D02*
X115000000Y-75500000D01*
X108000000Y-67500000D02*
X115000000Y-74500000D01*
X115400000Y-75900000D02*
X121875000Y-75900000D01*
X108250000Y-60250000D02*
X108000000Y-60500000D01*
X110480000Y-60250000D02*
X108250000Y-60250000D01*
X108000000Y-60500000D02*
X108000000Y-67500000D01*
%TO.N,Net-(A1-D2)*%
X121875000Y-79100000D02*
X121875000Y-85185000D01*
X121875000Y-85185000D02*
X122190000Y-85500000D01*
X127125000Y-79100000D02*
X126050000Y-80175000D01*
X126050000Y-80175000D02*
X126050000Y-85010000D01*
X126050000Y-85010000D02*
X139000000Y-97960000D01*
%TO.N,Net-(A1-D5)*%
X121375000Y-128100000D02*
X121375000Y-133875000D01*
X121375000Y-133875000D02*
X121500000Y-134000000D01*
X126625000Y-128100000D02*
X125550000Y-127025000D01*
X125550000Y-127025000D02*
X125550000Y-119030000D01*
X125550000Y-119030000D02*
X139000000Y-105580000D01*
%TO.N,Net-(A1-D3)*%
X121875000Y-95100000D02*
X122380000Y-95605000D01*
X122380000Y-95605000D02*
X122380000Y-101500000D01*
X127125000Y-95100000D02*
X133600000Y-95100000D01*
X133600000Y-95100000D02*
X139000000Y-100500000D01*
%TO.N,Net-(A1-D4)*%
X121380000Y-118000000D02*
X121380000Y-111830000D01*
X121380000Y-111830000D02*
X121250000Y-111700000D01*
X126500000Y-111700000D02*
X130340000Y-111700000D01*
X130340000Y-111700000D02*
X139000000Y-103040000D01*
%TO.N,unconnected-(A1-A4-Pad23)*%
X154240000Y-106060000D02*
X153800000Y-106500000D01*
%TD*%
M02*
