%TF.GenerationSoftware,KiCad,Pcbnew,8.0.7*%
%TF.CreationDate,2025-01-13T00:49:29+02:00*%
%TF.ProjectId,RC-CarPCB,52432d43-6172-4504-9342-2e6b69636164,rev?*%
%TF.SameCoordinates,Original*%
%TF.FileFunction,Soldermask,Top*%
%TF.FilePolarity,Negative*%
%FSLAX46Y46*%
G04 Gerber Fmt 4.6, Leading zero omitted, Abs format (unit mm)*
G04 Created by KiCad (PCBNEW 8.0.7) date 2025-01-13 00:49:29*
%MOMM*%
%LPD*%
G01*
G04 APERTURE LIST*
G04 Aperture macros list*
%AMRoundRect*
0 Rectangle with rounded corners*
0 $1 Rounding radius*
0 $2 $3 $4 $5 $6 $7 $8 $9 X,Y pos of 4 corners*
0 Add a 4 corners polygon primitive as box body*
4,1,4,$2,$3,$4,$5,$6,$7,$8,$9,$2,$3,0*
0 Add four circle primitives for the rounded corners*
1,1,$1+$1,$2,$3*
1,1,$1+$1,$4,$5*
1,1,$1+$1,$6,$7*
1,1,$1+$1,$8,$9*
0 Add four rect primitives between the rounded corners*
20,1,$1+$1,$2,$3,$4,$5,0*
20,1,$1+$1,$4,$5,$6,$7,0*
20,1,$1+$1,$6,$7,$8,$9,0*
20,1,$1+$1,$8,$9,$2,$3,0*%
G04 Aperture macros list end*
%ADD10R,3.000000X3.000000*%
%ADD11C,3.000000*%
%ADD12C,1.700000*%
%ADD13R,1.700000X1.700000*%
%ADD14RoundRect,0.250000X-0.525000X-0.250000X0.525000X-0.250000X0.525000X0.250000X-0.525000X0.250000X0*%
%ADD15C,2.700000*%
%ADD16C,1.750000*%
%ADD17R,1.750000X1.750000*%
%ADD18C,1.400000*%
%ADD19O,1.400000X1.400000*%
%ADD20O,1.600000X1.600000*%
%ADD21R,1.600000X1.600000*%
G04 APERTURE END LIST*
D10*
%TO.C,J1*%
X150120000Y-73500000D03*
D11*
X154000000Y-73500000D03*
%TD*%
D12*
%TO.C,U1*%
X148495000Y-45749500D03*
X148495000Y-48289500D03*
X145955000Y-45749500D03*
X145955000Y-48289500D03*
X143415000Y-45749500D03*
X143415000Y-48289500D03*
X140875000Y-45749500D03*
D13*
X140875000Y-48289500D03*
%TD*%
D14*
%TO.C,SW3*%
X126500000Y-111700000D03*
X121250000Y-111700000D03*
X126500000Y-108500000D03*
X121250000Y-108500000D03*
%TD*%
%TO.C,SW2*%
X127125000Y-95100000D03*
X121875000Y-95100000D03*
X127125000Y-91900000D03*
X121875000Y-91900000D03*
%TD*%
%TO.C,SW1*%
X127125000Y-79100000D03*
X121875000Y-79100000D03*
X127125000Y-75900000D03*
X121875000Y-75900000D03*
%TD*%
D15*
%TO.C,RV2*%
X160970000Y-139865000D03*
X169370000Y-138665000D03*
X169370000Y-75865000D03*
X160970000Y-74665000D03*
D16*
X166920000Y-144015000D03*
X163420000Y-70515000D03*
D17*
X166920000Y-70515000D03*
%TD*%
%TO.C,RV1*%
X110480000Y-60250000D03*
D16*
X110480000Y-63750000D03*
X183980000Y-60250000D03*
D15*
X114630000Y-66200000D03*
X115830000Y-57800000D03*
X178630000Y-57800000D03*
X179830000Y-66200000D03*
%TD*%
D18*
%TO.C,R4*%
X121500000Y-134000000D03*
D19*
X129120000Y-134000000D03*
%TD*%
%TO.C,R3*%
X129000000Y-118000000D03*
D18*
X121380000Y-118000000D03*
%TD*%
D19*
%TO.C,R2*%
X130000000Y-101500000D03*
D18*
X122380000Y-101500000D03*
%TD*%
D19*
%TO.C,R1*%
X129810000Y-85500000D03*
D18*
X122190000Y-85500000D03*
%TD*%
D14*
%TO.C,SW4*%
X126625000Y-128100000D03*
X121375000Y-128100000D03*
X126625000Y-124900000D03*
X121375000Y-124900000D03*
%TD*%
D20*
%TO.C,A1*%
X154240000Y-87800000D03*
X154240000Y-90340000D03*
X154240000Y-92880000D03*
X154240000Y-95420000D03*
X154240000Y-97960000D03*
X154240000Y-100500000D03*
X154240000Y-103040000D03*
X154240000Y-105580000D03*
X154240000Y-108120000D03*
X154240000Y-110660000D03*
X154240000Y-113200000D03*
X154240000Y-115740000D03*
X154240000Y-118280000D03*
X154240000Y-120820000D03*
X154240000Y-123360000D03*
X139000000Y-123360000D03*
X139000000Y-120820000D03*
X139000000Y-118280000D03*
X139000000Y-115740000D03*
X139000000Y-113200000D03*
X139000000Y-110660000D03*
X139000000Y-108120000D03*
X139000000Y-105580000D03*
X139000000Y-103040000D03*
X139000000Y-100500000D03*
X139000000Y-97960000D03*
X139000000Y-95420000D03*
X139000000Y-92880000D03*
X139000000Y-90340000D03*
D21*
X139000000Y-87800000D03*
%TD*%
M02*
